<?xml version="1.0" encoding="UTF-8"?>
<!-- Generator: Adobe Illustrator 19.1.0, SVG Export Plug-In . SVG Version: 6.00 Build 0)  -->
<svg xmlns="http://www.w3.org/2000/svg" xmlns:xlink="http://www.w3.org/1999/xlink" xmlns:dc="http://purl.org/dc/elements/1.1/" xmlns:cc="http://creativecommons.org/ns#" xmlns:rdf="http://www.w3.org/1999/02/22-rdf-syntax-ns#" version="1.1" id="DESIGNS" x="0px" y="0px" width="32px" height="32px" viewBox="0 0 32 32" style="enable-background:new 0 0 32 32;" xml:space="preserve">
<title property="dc:title">to rise</title><desc property="dc:description">An icon for "rise" from the Lines and Angles series on to [icon]. Downloaded from http://www.toicon.com/icons/lines-and-angles_rise by 59.2.100.195 on 2021-08-11. Licensed CC-BY, see http://toicon.com/license/ for details.</desc>
<path class="linesandangles_een" d="M7,21H4v-2h3V21z M25,19v2h3v-2H25z M25.192,12.222l-1.414-1.414l-2.121,2.121l1.414,1.414  L25.192,12.222z M17,8h-2v3h2V8z M10.343,12.929l-2.121-2.121l-1.414,1.414l2.121,2.121L10.343,12.929z M23.406,23H28v2H4v-2h4.594  C8.215,22.073,8,21.063,8,20c0-4.418,3.582-8,8-8s8,3.582,8,8C24,21.063,23.785,22.073,23.406,23z M22,20c0-3.308-2.692-6-6-6  s-6,2.692-6,6c0,0.968,0.239,1.927,0.694,2.789L10.903,23h10.194l0.208-0.211C21.761,21.927,22,20.968,22,20z" style="fill: #111918;"/>
<metadata><work rdf:about=""><format>image/svg+xml</format><type rdf:resource="http://purl.org/dc/dcmitype/StillImage"/><license rdf:resource="http://creativecommons.org/licenses/by/4.0/"/><attributionname>Shannon E Thomas</attributionname><attributionurl>http://www.toicon.com/icons/lines-and-angles_rise</attributionurl></work></metadata></svg>
