<?xml version="1.0" encoding="UTF-8"?>
<!-- Generator: Adobe Illustrator 19.1.0, SVG Export Plug-In . SVG Version: 6.00 Build 0)  -->
<svg xmlns="http://www.w3.org/2000/svg" xmlns:xlink="http://www.w3.org/1999/xlink" xmlns:dc="http://purl.org/dc/elements/1.1/" xmlns:cc="http://creativecommons.org/ns#" xmlns:rdf="http://www.w3.org/1999/02/22-rdf-syntax-ns#" version="1.1" id="DESIGNS" x="0px" y="0px" width="32px" height="32px" viewBox="0 0 32 32" style="enable-background:new 0 0 32 32;" xml:space="preserve">
<title property="dc:title">to shine</title><desc property="dc:description">An icon for "shine" from the Lines and Angles series on to [icon]. Downloaded from http://www.toicon.com/icons/lines-and-angles_shine by 59.2.100.195 on 2021-08-11. Licensed CC-BY, see http://toicon.com/license/ for details.</desc>
<path class="linesandangles_een" d="M16,8c-4.411,0-8,3.589-8,8s3.589,8,8,8s8-3.589,8-8S20.411,8,16,8z M16,22  c-3.309,0-6-2.691-6-6s2.691-6,6-6s6,2.691,6,6S19.309,22,16,22z M15,26h2v3h-2V26z M17,6h-2V3h2V6z M29,15v2h-3v-2H29z M3,15h3v2H3  V15z M23.778,22.364l2.121,2.121l-1.414,1.414l-2.121-2.121L23.778,22.364z M8.222,9.636L6.101,7.515L7.515,6.1l2.121,2.121  L8.222,9.636z M24.485,6.1l1.414,1.414l-2.121,2.121l-1.414-1.414L24.485,6.1z M8.222,22.364l1.414,1.414l-2.121,2.121l-1.414-1.414  L8.222,22.364z" style="fill: #111918;"/>
<metadata><work rdf:about=""><format>image/svg+xml</format><type rdf:resource="http://purl.org/dc/dcmitype/StillImage"/><license rdf:resource="http://creativecommons.org/licenses/by/4.0/"/><attributionname>Shannon E Thomas</attributionname><attributionurl>http://www.toicon.com/icons/lines-and-angles_shine</attributionurl></work></metadata></svg>
