<?xml version="1.0" encoding="UTF-8"?>
<!-- Generator: Adobe Illustrator 19.1.0, SVG Export Plug-In . SVG Version: 6.00 Build 0)  -->
<svg xmlns="http://www.w3.org/2000/svg" xmlns:xlink="http://www.w3.org/1999/xlink" xmlns:dc="http://purl.org/dc/elements/1.1/" xmlns:cc="http://creativecommons.org/ns#" xmlns:rdf="http://www.w3.org/1999/02/22-rdf-syntax-ns#" version="1.1" id="DESIGNS" x="0px" y="0px" width="32px" height="32px" viewBox="0 0 32 32" style="enable-background:new 0 0 32 32;" xml:space="preserve">
<title property="dc:title">to snow</title><desc property="dc:description">An icon for "snow" from the Lines and Angles series on to [icon]. Downloaded from http://www.toicon.com/icons/lines-and-angles_snow by 59.2.100.195 on 2021-08-11. Licensed CC-BY, see http://toicon.com/license/ for details.</desc>
<path class="linesandangles_een" d="M28.099,19.043l-3.297,0.883l-1.873-1.082l0.002-5.692l1.872-1.081l3.297,0.883l0.518-1.932  l-2.732-0.732l0.732-2.732l-1.932-0.518l-0.883,3.297l-1.873,1.082L17,8.576V6.414L19.414,4L18,2.586l-2,2l-2-2L12.586,4L15,6.414  v2.162l-4.928,2.846l-1.873-1.082L7.315,7.043L5.383,7.561l0.732,2.732l-2.732,0.732l0.518,1.932l3.297-0.883l1.874,1.082v5.69  l-1.874,1.082l-3.297-0.883l-0.518,1.932l2.732,0.732l-0.732,2.732l1.932,0.518l0.883-3.297l1.873-1.082L15,23.424v2.162L12.586,28  L14,29.414l2-2l2,2L19.414,28L17,25.586v-2.162l4.928-2.846l1.873,1.082l0.883,3.297l1.932-0.518l-0.732-2.732l2.732-0.732  L28.099,19.043z M20.929,17.691L18,16l2.93-1.691L20.929,17.691z M19.928,12.577L17,14.268v-3.382L19.928,12.577z M15,10.886v3.382  l-2.928-1.691L15,10.886z M11.072,14.31L14,16l-2.928,1.69V14.31z M12.072,19.423L15,17.732v3.382L12.072,19.423z M17,21.114v-3.382  l2.928,1.691L17,21.114z" style="fill: #111918;"/>
<metadata><work rdf:about=""><format>image/svg+xml</format><type rdf:resource="http://purl.org/dc/dcmitype/StillImage"/><license rdf:resource="http://creativecommons.org/licenses/by/4.0/"/><attributionname>Shannon E Thomas</attributionname><attributionurl>http://www.toicon.com/icons/lines-and-angles_snow</attributionurl></work></metadata></svg>
