<?xml version="1.0" encoding="UTF-8"?>
<!-- Generator: Adobe Illustrator 19.1.0, SVG Export Plug-In . SVG Version: 6.00 Build 0)  -->
<svg xmlns="http://www.w3.org/2000/svg" xmlns:xlink="http://www.w3.org/1999/xlink" xmlns:dc="http://purl.org/dc/elements/1.1/" xmlns:cc="http://creativecommons.org/ns#" xmlns:rdf="http://www.w3.org/1999/02/22-rdf-syntax-ns#" version="1.1" x="0px" y="0px" width="32px" height="32px" viewBox="0 0 32 32" style="enable-background:new 0 0 32 32;" xml:space="preserve">
<title property="dc:title">to shade</title><desc property="dc:description">An icon for "shade" from the Lines and Angles series on to [icon]. Downloaded from http://www.toicon.com/icons/lines-and-angles_shade by 59.2.100.195 on 2021-08-11. Licensed CC-BY, see http://toicon.com/license/ for details.</desc>
<g id="LABELS">
</g>
<g id="DESIGNS">
	<path class="linesandangles_een" d="M25.623,16.228C25.861,15.527,26,14.781,26,14c0-3.86-3.14-7-7-7   c-3.202,0-5.904,2.163-6.733,5.103c-2.7,0.443-4.945,2.319-5.847,4.93C3.936,17.321,2,19.439,2,22c0,2.757,2.243,5,5,5h15   c3.309,0,6-2.691,6-6C28,19.053,27.064,17.325,25.623,16.228z M19,9c2.757,0,5,2.243,5,5c0,0.446-0.068,0.874-0.18,1.284   C23.246,15.101,22.635,15,22,15c-0.753,0-1.501,0.148-2.207,0.432c-1.205-1.859-3.187-3.102-5.385-3.374   C15.168,10.266,16.934,9,19,9z M22,25H7c-1.654,0-3-1.346-3-3s1.346-3,2.956-3.001l1.006,0.052l0.188-0.806   C8.734,15.746,10.934,14,13.5,14c2.123,0,4.078,1.248,4.979,3.179l0.476,1.018l0.956-0.59C20.563,17.204,21.266,17,22,17   c2.206,0,4,1.794,4,4S24.206,25,22,25z M20,5h-2V3h2V5z M30,13v2h-2v-2H30z M26.071,8.343l-1.414-1.414l1.414-1.414l1.414,1.414   L26.071,8.343z M11.929,8.343l-1.414-1.414l1.414-1.414l1.414,1.414L11.929,8.343z" style="fill: #111918;"/>
</g>
<metadata><work rdf:about=""><format>image/svg+xml</format><type rdf:resource="http://purl.org/dc/dcmitype/StillImage"/><license rdf:resource="http://creativecommons.org/licenses/by/4.0/"/><attributionname>Shannon E Thomas</attributionname><attributionurl>http://www.toicon.com/icons/lines-and-angles_shade</attributionurl></work></metadata></svg>
