<?xml version="1.0" encoding="UTF-8"?>
<!-- Generator: Adobe Illustrator 19.1.0, SVG Export Plug-In . SVG Version: 6.00 Build 0)  -->
<svg xmlns="http://www.w3.org/2000/svg" xmlns:xlink="http://www.w3.org/1999/xlink" xmlns:dc="http://purl.org/dc/elements/1.1/" xmlns:cc="http://creativecommons.org/ns#" xmlns:rdf="http://www.w3.org/1999/02/22-rdf-syntax-ns#" version="1.1" id="DESIGNS" x="0px" y="0px" width="32px" height="32px" viewBox="0 0 32 32" style="enable-background:new 0 0 32 32;" xml:space="preserve">
<title property="dc:title">to rain</title><desc property="dc:description">An icon for "rain" from the Lines and Angles series on to [icon]. Downloaded from http://www.toicon.com/icons/lines-and-angles_rain by 59.2.100.195 on 2021-08-11. Licensed CC-BY, see http://toicon.com/license/ for details.</desc>
<path class="linesandangles_een" d="M23,6c-0.753,0-1.501,0.148-2.207,0.432C19.424,4.319,17.052,3,14.5,3  c-3.235,0-6.043,2.034-7.079,5.033C4.936,8.321,3,10.439,3,13c0,2.757,2.243,5,5,5h15c3.309,0,6-2.691,6-6S26.309,6,23,6z M23,16H8  c-1.654,0-3-1.346-3-3s1.346-3,2.956-3.001l1.006,0.052L9.15,9.245C9.734,6.746,11.934,5,14.5,5c2.123,0,4.078,1.248,4.979,3.179  l0.476,1.018l0.956-0.59C21.563,8.204,22.266,8,23,8c2.206,0,4,1.794,4,4S25.206,16,23,16z M7,20h2v2H7V20z M7,24h2v2H7V24z M11,20  h2v2h-2V20z M11,24h2v2h-2V24z M15,20h2v2h-2V20z M15,24h2v2h-2V24z M19,20h2v2h-2V20z M19,24h2v2h-2V24z M23,20h2v2h-2V20z M23,24  h2v2h-2V24z" style="fill: #111918;"/>
<metadata><work rdf:about=""><format>image/svg+xml</format><type rdf:resource="http://purl.org/dc/dcmitype/StillImage"/><license rdf:resource="http://creativecommons.org/licenses/by/4.0/"/><attributionname>Shannon E Thomas</attributionname><attributionurl>http://www.toicon.com/icons/lines-and-angles_rain</attributionurl></work></metadata></svg>
