<?xml version="1.0" encoding="UTF-8"?>
<!-- Generator: Adobe Illustrator 19.1.0, SVG Export Plug-In . SVG Version: 6.00 Build 0)  -->
<svg xmlns="http://www.w3.org/2000/svg" xmlns:xlink="http://www.w3.org/1999/xlink" xmlns:dc="http://purl.org/dc/elements/1.1/" xmlns:cc="http://creativecommons.org/ns#" xmlns:rdf="http://www.w3.org/1999/02/22-rdf-syntax-ns#" version="1.1" id="DESIGNS" x="0px" y="0px" width="32px" height="32px" viewBox="0 0 32 32" style="enable-background:new 0 0 32 32;" xml:space="preserve">
<title property="dc:title">to sleep</title><desc property="dc:description">An icon for "sleep" from the Lines and Angles series on to [icon]. Downloaded from http://www.toicon.com/icons/lines-and-angles_sleep by 59.2.100.195 on 2021-08-11. Licensed CC-BY, see http://toicon.com/license/ for details.</desc>
<path class="linesandangles_een" d="M27.577,12.912c-1.401-5.23-6.164-8.884-11.58-8.884c-0.48,0-0.966,0.029-1.442,0.087  L14.004,5.85c1.146,1.037,1.963,2.37,2.361,3.854c1.142,4.261-1.396,8.657-5.657,9.798c-1.482,0.398-3.052,0.357-4.518-0.118  l-1.228,1.344c1.888,4.429,6.214,7.291,11.021,7.291h0.001c1.043,0,2.089-0.138,3.106-0.411c3.096-0.83,5.684-2.815,7.286-5.591  C27.981,19.242,28.407,16.008,27.577,12.912z M24.646,21.018c-1.336,2.313-3.492,3.968-6.072,4.659  c-0.849,0.228-1.72,0.343-2.589,0.343h-0.001c-3.312,0-6.35-1.631-8.191-4.282c1.15,0.101,2.313-0.002,3.433-0.303  c5.326-1.427,8.498-6.921,7.071-12.248c-0.301-1.125-0.794-2.178-1.453-3.123c4.155,0.353,7.707,3.282,8.802,7.365  C26.337,16.01,25.981,18.705,24.646,21.018z" style="fill: #111918;"/>
<metadata><work rdf:about=""><format>image/svg+xml</format><type rdf:resource="http://purl.org/dc/dcmitype/StillImage"/><license rdf:resource="http://creativecommons.org/licenses/by/4.0/"/><attributionname>Shannon E Thomas</attributionname><attributionurl>http://www.toicon.com/icons/lines-and-angles_sleep</attributionurl></work></metadata></svg>
